<?xml version="1.0" encoding="utf-8"?>
<!-- Generator: Adobe Illustrator 16.0.0, SVG Export Plug-In . SVG Version: 6.00 Build 0)  -->
<!DOCTYPE svg PUBLIC "-//W3C//DTD SVG 1.1//EN" "http://www.w3.org/Graphics/SVG/1.1/DTD/svg11.dtd">
<svg version="1.1" id="Capa_1" xmlns="http://www.w3.org/2000/svg" xmlns:xlink="http://www.w3.org/1999/xlink" x="0px" y="0px"
	 width="36px" height="36px" viewBox="0 0 36 36" enable-background="new 0 0 36 36" xml:space="preserve">
<polygon fill="#654320" points="15.663,34.324 5.215,29.424 5.215,12.984 15.663,17.887 "/>
<polygon fill="#8F5F24" points="31.418,29.792 16.041,34.318 16.041,17.881 31.418,13.355 "/>
<polygon fill="#8F5F24" points="31.418,13.098 16.041,17.624 5.047,12.501 20.802,9.108 "/>
<polygon fill="#FFFFFF" points="15.663,28.914 9.28,25.714 9.28,20.127 15.663,22.952 "/>
<polygon fill="#FFFFFF" points="27.626,25.645 16.041,29.038 16.041,23.161 27.626,20.145 "/>
<polygon fill="#FFFFFF" points="25.943,17.991 25.943,28.852 30.489,21.732 "/>
<path fill="#FFFFFF" d="M18.085,0.742c-1.884,0-3.411,1.521-3.411,3.395c0,1.357,1.512,3.065,2.613,5.728
	c0.422,1.017,0.783,2.173,0.977,3.5c0.156-1.515,0.535-2.806,0.981-3.922c0.968-2.423,2.253-4.022,2.253-5.306
	C21.498,2.263,19.971,0.742,18.085,0.742z M18.084,6.138c-1.017,0-1.843-0.821-1.843-1.834c0-1.014,0.826-1.833,1.843-1.833
	c1.02,0,1.843,0.819,1.843,1.833C19.927,5.317,19.104,6.138,18.084,6.138z"/>
</svg>
