<?xml version="1.0" encoding="utf-8"?>
<!-- Generator: Adobe Illustrator 16.0.0, SVG Export Plug-In . SVG Version: 6.00 Build 0)  -->
<!DOCTYPE svg PUBLIC "-//W3C//DTD SVG 1.1//EN" "http://www.w3.org/Graphics/SVG/1.1/DTD/svg11.dtd">
<svg version="1.1" id="Capa_1" xmlns="http://www.w3.org/2000/svg" xmlns:xlink="http://www.w3.org/1999/xlink" x="0px" y="0px"
	 width="60px" height="60px" viewBox="0 0 60 60" enable-background="new 0 0 60 60" xml:space="preserve">
<g>
	<path d="M13.419,48.333c-0.143,2.235-1.03,3.963-2.101,3.963c-1.072,0-1.957-1.728-2.096-3.963
		c-0.011-0.103-0.016-0.206-0.021-0.309H8.007c0,0.103,0.005,0.206,0.01,0.309c0.148,3.656,1.568,6.543,3.302,6.543
		s3.155-2.887,3.302-6.543c0.005-0.103,0.012-0.206,0.013-0.309h-1.198C13.431,48.127,13.423,48.23,13.419,48.333z"/>
	<path d="M11.318,40.543c-1.782,0-3.236,3.052-3.312,6.857h1.195c0.074-2.383,0.996-4.271,2.117-4.271
		c1.123,0,2.042,1.888,2.117,4.271h1.198C14.558,43.595,13.103,40.543,11.318,40.543z"/>
	<polygon points="2.986,39.155 2.986,45.224 4.138,45.224 4.138,40.405 5.302,40.405 5.302,45.224 6.24,48.373 6.631,48.373 
		6.631,43.825 8.42,39.155 	"/>
	<path d="M11.318,51.211c0.753,0,1.422-1.155,1.584-2.74c0,0,0.031-0.377,0.031-0.384l0.008-0.372l-0.008-0.383
		c-0.091-1.782-0.787-3.118-1.615-3.118c-0.83,0-1.523,1.336-1.611,3.118l-0.011,0.383c0,0,0.011,0.372,0.011,0.379l0.028,0.377
		C9.902,50.056,10.565,51.211,11.318,51.211z"/>
	<path d="M8.899,38.368h12.048c0,0,0.215,0.149,0.24,0.167h8.063h0.172h0.187h0.217h8.396h0.579h0.572h0.581v-0.324V26.849H2.407
		v11.686h6.256C8.683,38.518,8.899,38.368,8.899,38.368z"/>
	<path d="M48.044,48.333c-0.145,2.235-1.026,3.963-2.1,3.963c-1.074,0-1.953-1.728-2.097-3.963
		c-0.006-0.103-0.014-0.206-0.014-0.309h-1.203c0.003,0.103,0.01,0.206,0.014,0.309c0.15,3.656,1.566,6.543,3.3,6.543
		c1.736,0,3.152-2.887,3.305-6.543c0.001-0.103,0.008-0.206,0.008-0.309h-1.196C48.055,48.127,48.051,48.23,48.044,48.333z"/>
	<path d="M45.944,51.211c0.758,0,1.426-1.155,1.587-2.74c0,0,0.023-0.377,0.023-0.384l0.014-0.372l-0.014-0.383
		c-0.083-1.782-0.782-3.118-1.61-3.118c-0.827,0-1.521,1.336-1.611,3.118l-0.007,0.383c0,0,0.007,0.372,0.007,0.379l0.027,0.377
		C44.524,50.056,45.191,51.211,45.944,51.211z"/>
	<path d="M45.944,40.543c-1.786,0-3.242,3.052-3.313,6.857h1.203c0.069-2.383,0.99-4.271,2.11-4.271
		c1.119,0,2.041,1.888,2.116,4.271h1.196C49.186,43.595,47.732,40.543,45.944,40.543z"/>
	<path d="M17.154,40.496h-4.462c0.992,0.881,1.765,2.69,2.076,4.947c0.004,0.033,0.008,0.063,0.013,0.09
		c0.027,0.116,0.083,0.189,0.142,0.189c0.065,0,0.115-0.073,0.139-0.184c0.009-0.039,0.015-0.08,0.019-0.109
		C15.395,43.183,16.167,41.377,17.154,40.496z"/>
	<path d="M9.034,38.535l-1.997,5.206v4.632h0.579v-4.03c0.354-0.927,1.566-4.093,1.708-4.467h11.191
		c0.146,0.374,1.359,3.54,1.715,4.467v4.03h0.575v-4.632l-1.996-5.206H9.034z"/>
	<path d="M20.626,48.333c-0.139,2.235-1.025,3.963-2.097,3.963c-1.073,0-1.958-1.728-2.1-3.963
		c-0.008-0.103-0.015-0.206-0.019-0.309h-1.198c0.003,0.103,0.007,0.206,0.013,0.309c0.146,3.656,1.567,6.543,3.303,6.543
		c1.734,0,3.152-2.887,3.299-6.543c0.003-0.103,0.012-0.206,0.016-0.309h-1.2C20.643,48.127,20.633,48.23,20.626,48.333z"/>
	<path d="M18.529,51.211c0.752,0,1.419-1.155,1.583-2.74c0,0,0.024-0.377,0.029-0.384l0.006-0.372l-0.006-0.383
		c-0.091-1.782-0.786-3.118-1.612-3.118c-0.831,0-1.524,1.336-1.613,3.118l-0.011,0.383c0,0,0.011,0.372,0.011,0.379l0.029,0.377
		C17.105,50.056,17.774,51.211,18.529,51.211z"/>
	<path d="M18.529,40.543c-1.785,0-3.237,3.052-3.316,6.857h1.198c0.076-2.383,0.995-4.271,2.119-4.271
		c1.12,0,2.04,1.888,2.115,4.271h1.2C21.767,43.595,20.311,40.543,18.529,40.543z"/>
	<path d="M57.62,15.545c-0.387,0-0.688,1.231-0.688,2.75c0,1.101,0.164,2.051,0.391,2.491v2.907
		c-0.011,0.294-0.094,0.297-0.121,0.297h-2.126L51.982,9.926H52L51.815,9.06c-0.032-0.133-0.722-3.327-2.622-3.327h-8.35
		c-0.174,0-0.314,0.297-0.314,0.673v32.797c0,0.206,0.05,0.794,0.111,1.276c-0.412-0.114-0.733-0.642-0.733-1.276v-0.048h-3.385
		h-0.436H21.423l1.793,4.67v4.548h12.871h0.436h4.45v-0.54c-0.003-0.043-0.007-0.088-0.007-0.135c0-2.143,0.479-4.15,1.332-5.799
		v-0.716v-0.688v-0.605h0.601v-0.015h0.846c-1.225,1.611-2.052,4.513-2.052,7.822c0,0.371,0.146,0.675,0.313,0.675
		c0.174,0,0.311-0.304,0.311-0.675c0-4.316,1.629-7.822,3.629-7.822c1.995,0,3.629,3.506,3.629,7.822
		c0,0.371,0.136,0.675,0.316,0.675h7.025c0.178,0,0.31-0.304,0.31-0.675v-5.83c0-0.363-0.132-0.667-0.31-0.667c0,0-0.218,0-0.432,0
		v-5.356c0-2.646,0-5.257,0-5.257c0-0.097-0.009-0.198-0.026-0.287l-0.338-1.568h-0.017l-0.755-3.496h1.854
		c0.491,0,0.678-0.874,0.703-1.505v-2.945c0.229-0.437,0.39-1.391,0.39-2.491C58.294,16.776,57.992,15.545,57.62,15.545z
		 M42.67,22.291V9.096c0-0.302,0.09-0.545,0.205-0.545h5.577c1.261,0,1.727,2.586,1.75,2.694l0.124,0.702h-0.012l1.874,10.344H42.67
		z"/>
</g>
</svg>
